{
    "asset": {
        "copyright": "",
        "generator": "SharpGLTF 1.0.0-alpha0012",
        "version": "2.0"
    },
    "accessors": [
        {
            "name": "POSITION",
            "bufferView": 0,
            "componentType": 5126,
            "count": 704,
            "max": [
                0.013438388705253601,
                0.013484224677085876,
                0.0099999997764825821
            ],
            "min": [
                -0.013499515131115913,
                -0.013484224677085876,
                -0.045000001788139343
            ],
            "type": "VEC3"
        },
        {
            "bufferView": 1,
            "componentType": 5123,
            "count": 4212,
            "type": "SCALAR"
        }
    ],
    "bufferViews": [
        {
            "buffer": 0,
            "byteLength": 8448,
            "byteStride": 12,
            "target": 34962
        },
        {
            "buffer": 0,
            "byteLength": 8424,
            "byteOffset": 8448,
            "target": 34963
        }
    ],
    "buffers": [
        {
            "byteLength": 16872,
            "uri": "flangebolt.bin"
        }
    ],
    "materials": [
        {
            "doubleSided": true,
            "pbrMetallicRoughness": {
                "baseColorFactor": [
                    0.7529412,
                    0.7529412,
                    0.7529412,
                    1.0
                ]
            }
        }
    ],
    "meshes": [
        {
            "name": "mesh",
            "primitives": [
                {
                    "attributes": {
                        "POSITION": 0
                    },
                    "indices": 1,
                    "material": 0
                }
            ]
        }
    ],
    "nodes": [
        {
            "mesh": 0
        }
    ],
    "scenes": [
        {
            "nodes": [
                0
            ]
        }
    ]
}